<svg width="421" height="222" viewBox="0 0 421 222" fill="none" xmlns="http://www.w3.org/2000/svg">
<g clip-path="url(#clip0_115_403)">
<path d="M253.712 221.874C234.559 221.83 215.68 221.721 196.801 221.741C141.516 221.802 86.2311 221.921 30.9463 221.999C21.845 222.012 12.7428 221.85 3.64271 221.942C0.84566 221.971 -0.00178373 221.015 2.81752e-06 218.221C0.0452905 147.368 -0.0136452 76.5144 0.0345196 5.66087C0.0388323 -0.684126 -0.596472 0.0348598 5.65478 0.0339368C141.402 0.0148391 277.149 0.00802294 412.896 2.52347e-07C413.864 -7.07037e-05 414.832 0.0148389 415.801 0.0234292C421.081 0.070145 420.999 0.0701447 420.993 5.29609C420.965 28.7495 420.991 52.203 420.993 75.6564C420.998 122.857 421.001 170.057 421 217.257C421 221.89 420.984 221.887 416.332 221.887C392.613 221.884 368.894 221.882 345.175 221.881C321.941 221.879 298.706 221.878 275.471 221.876C268.309 221.875 261.147 221.87 253.712 221.874ZM295.59 142.904C296.627 146.731 297.47 150.624 298.735 154.373C303.529 168.585 310.081 181.765 321.591 191.885C336.296 204.815 354.408 204.889 369.238 192.105C377.257 185.193 382.906 176.535 387.029 166.926C399.811 137.128 401.258 106.33 394.183 75.0109C390.401 58.268 383.753 42.7913 371.753 30.0481C356.074 13.3973 334.62 12.8924 318.315 28.8785C311.864 35.2028 307.004 42.6633 303.395 50.8733C290.383 80.4721 288.828 111.112 295.59 142.904ZM176.746 199.046C177.701 202.853 178.656 206.659 179.574 210.317C182.634 210.317 185.305 210.317 188.034 210.317C188.034 207.183 188.034 204.234 188.034 200.927C183.489 202.338 182.785 199.427 182.338 196.223C182.298 195.939 182.157 195.671 182.088 195.389C180.294 188.092 178.504 180.794 176.745 173.625C180.575 170.712 182.172 168.602 183.325 164.336C185.265 157.163 185.201 149.963 183.017 142.846C181.944 139.347 179.837 136.531 176.216 135.461C169.13 133.368 161.894 134.782 154.767 134.341C154.767 137.83 154.767 140.787 154.767 143.866C156.464 143.968 157.976 144.058 159.602 144.156C159.602 163.146 159.602 181.979 159.602 200.936C157.907 201.035 156.397 201.124 154.733 201.221C154.733 204.305 154.733 207.252 154.733 210.305C160.027 210.305 165.183 210.305 170.374 210.305C170.374 207.168 170.374 204.231 170.374 201.224C168.73 201.111 167.313 201.012 165.779 200.906C165.779 192.26 165.779 183.789 165.779 175.342C170.914 174.603 170.903 174.605 172.045 179.379C173.574 185.778 175.123 192.172 176.746 199.046ZM258.154 9.2279C253.294 7.89898 248.847 9.06822 245.738 12.7833C242.938 16.1294 240.366 19.9848 238.872 24.0497C233.964 37.4073 234.069 51.1934 236.862 64.9892C238.26 71.8926 240.627 78.4381 245.877 83.4993C250.857 88.3007 258.113 88.7063 263.177 83.9951C265.735 81.6151 267.89 78.588 269.539 75.4865C272.807 69.3386 274.048 62.5242 274.564 55.6369C275.463 43.6379 274.841 31.7913 269.655 20.655C267.322 15.6437 264.15 11.2916 258.154 9.2279ZM149.565 210.498C150.597 210.498 151.628 210.498 152.714 210.498C152.714 207.185 152.714 204.236 152.714 201.315C148.73 200.838 148.708 200.842 147.998 197.059C146.964 191.545 145.957 186.025 144.952 180.505C142.736 168.332 140.528 156.156 138.285 143.8C139.846 143.677 141.244 143.567 142.742 143.449C142.742 140.427 142.742 137.574 142.742 134.585C136.067 134.585 129.556 134.585 122.935 134.585C122.935 137.645 122.935 140.501 122.935 143.457C124.424 143.566 125.746 143.664 127.134 143.766C127.134 144.452 127.22 145.027 127.122 145.568C124.011 162.8 120.816 180.016 117.824 197.267C117.325 200.145 116.396 201.661 113.314 201.143C113.093 201.105 112.821 201.363 112.597 201.473C112.597 204.475 112.597 207.41 112.597 210.306C117.739 210.306 122.631 210.306 127.557 210.306C127.557 207.169 127.557 204.227 127.557 201.235C126.018 201.114 124.689 201.01 122.932 200.872C123.853 195.393 124.723 190.085 125.68 184.793C125.752 184.395 126.441 183.821 126.851 183.814C131.169 183.743 135.489 183.77 139.829 183.77C140.824 189.662 141.753 195.162 142.715 200.855C140.901 201.004 139.488 201.121 137.915 201.251C137.915 204.3 137.915 207.246 137.915 210.498C141.698 210.498 145.349 210.498 149.565 210.498ZM135.095 83.7228C140.652 78.4972 142.91 71.6423 144.514 64.4855C145.429 60.4023 144.24 58.1647 140.234 56.1347C139.978 57.3759 139.901 58.6765 139.44 59.822C137.684 64.1803 136.362 68.8525 133.839 72.729C130.17 78.3638 124.145 78.2038 120.191 72.7596C118.515 70.4514 117.218 67.7562 116.264 65.0545C113.404 56.9544 113.181 48.5072 114.077 40.0942C114.711 34.1335 116.045 28.2346 119.679 23.1938C123.622 17.7248 129.31 17.3595 133.479 22.6183C135.364 24.9957 136.745 27.8596 137.936 30.6801C139.633 34.6976 139.469 34.7673 143.895 33.9749C143.895 26.0136 143.895 18.0475 143.895 10.0745C142.335 10.0745 141.014 10.0745 139.283 10.0745C139.283 12.6081 139.283 15.0084 139.283 18.0062C137.828 16.1204 136.905 14.7622 135.821 13.5476C130.187 7.2338 122.932 6.97374 117.203 13.162C115.143 15.3873 113.373 18.0938 112.191 20.8862C106.541 34.2344 106.26 48.1654 108.452 62.2424C109.518 69.0874 111.596 75.6328 115.858 81.2549C121.091 88.1602 127.897 89.1133 135.095 83.7228ZM37.1739 87.084C39.9346 85.4208 43.1437 84.2092 45.363 82.0007C50.0336 77.3531 51.8068 71.1069 53.2144 64.8242C54.2281 60.3003 53.3675 58.528 49.0362 56.0905C48.7753 57.3342 48.5425 58.5588 48.2598 59.7718C47.1331 64.6064 45.6753 69.31 42.4363 73.2186C38.5165 77.9486 33.2176 78.0556 29.3878 73.2587C27.7885 71.2556 26.4762 68.8857 25.5837 66.4782C21.8883 56.51 21.4581 46.1926 23.7006 35.9153C24.6887 31.3867 26.4544 26.8003 28.8846 22.8708C32.1589 17.5764 38.0861 17.489 42.0049 22.3425C44.0274 24.8473 45.5169 27.8788 46.7962 30.8659C48.446 34.7182 48.6719 35.0146 52.7145 33.8464C52.7145 25.9364 52.7145 18.0435 52.7145 10.136C51.1157 10.136 49.7236 10.136 48.0419 10.136C48.0419 12.6944 48.0419 15.0412 48.0419 17.9339C46.6032 16.0966 45.6255 14.6762 44.4774 13.4107C38.8946 7.25723 31.71 7.01187 26.0683 13.0893C23.9439 15.378 22.1651 18.1856 20.9153 21.0561C15.6603 33.126 15.2875 45.8525 16.695 58.6823C17.5671 66.6317 19.5736 74.3085 24.4038 80.9126C27.4138 85.0278 31.2044 87.795 37.1739 87.084ZM71.3977 199.599C68.2887 202.807 64.958 202.811 62.355 199.287C59.7378 195.745 57.9814 191.775 58.0225 187.217C58.0352 185.803 58.0244 184.389 58.0244 182.894C56.2058 182.894 54.8069 182.894 53.247 182.894C53.247 192.124 53.247 201.175 53.247 210.267C54.9005 210.267 56.3768 210.267 57.9131 210.267C57.9992 208.548 58.0738 207.056 58.169 205.154C59.5903 206.749 60.6312 208.111 61.8665 209.265C65.4298 212.594 70.1058 212.603 73.5459 209.172C74.8176 207.903 75.9096 206.323 76.667 204.692C79.7842 197.976 79.842 190.836 79.3102 183.628C78.6391 174.533 74.5772 167.836 65.9109 164.313C65.4667 164.133 65.0629 163.85 64.6455 163.606C58.5414 160.04 56.3289 153.045 59.2724 146.623C61.058 142.727 65.5278 141.657 68.6429 144.562C71.1853 146.933 72.7978 149.886 72.8219 153.506C72.8293 154.619 72.823 155.732 72.823 156.907C74.6362 156.907 75.9697 156.907 77.6779 156.907C77.6779 149.947 77.6331 143.095 77.7086 136.244C77.7281 134.483 77.1493 133.869 75.3749 133.867C73.5863 133.864 72.5724 134.261 72.803 136.283C72.8701 136.871 72.6857 137.489 72.5909 138.318C72.1098 137.934 71.8665 137.791 71.6876 137.59C65.8039 130.987 58.7294 131.967 55.4143 140.139C52.184 148.102 52.1283 156.401 54.3952 164.639C56.1928 171.172 61.2926 174.671 66.9717 177.519C67.658 177.863 68.4381 178.229 68.8826 178.809C70.3766 180.758 72.3451 182.624 73.0262 184.86C74.5014 189.701 74.091 194.625 71.3977 199.599ZM203.301 161.351C203.301 174.491 203.301 187.632 203.301 200.87C201.463 201.013 200.043 201.124 198.449 201.248C198.449 204.296 198.449 207.243 198.449 210.344C203.679 210.344 208.756 210.344 213.979 210.344C213.979 207.253 213.979 204.3 213.979 201.262C212.305 201.117 210.806 200.987 209.303 200.857C209.303 181.862 209.303 163.099 209.303 144.28C211.914 144.28 214.348 144.28 217.024 144.28C217.024 150.341 217.024 156.131 217.024 161.998C218.744 161.998 220.209 161.998 221.635 161.998C221.635 152.706 221.635 143.653 221.635 134.596C211.198 134.596 200.992 134.596 190.765 134.596C190.765 143.876 190.765 152.94 190.765 162.025C192.334 162.025 193.721 162.025 195.42 162.025C195.42 155.954 195.42 150.091 195.42 144.268C198.193 144.268 200.642 144.268 203.301 144.268C203.301 149.941 203.301 155.355 203.301 161.351ZM218.427 52.0085C218.427 41.2823 218.427 30.556 218.427 19.7335C221.168 19.7335 223.532 19.7335 226.245 19.7335C226.245 25.7761 226.245 31.6404 226.245 37.6298C228.003 37.6298 229.409 37.6298 230.914 37.6298C230.914 28.3575 230.914 19.2299 230.914 10.1492C220.458 10.1492 210.251 10.1492 200.077 10.1492C200.077 19.4473 200.077 28.5138 200.077 37.543C201.668 37.543 203.054 37.543 204.757 37.543C204.757 31.46 204.757 25.6018 204.757 19.7075C207.467 19.7075 209.852 19.7075 212.364 19.7075C212.364 38.6954 212.364 57.5174 212.364 76.4319C210.723 76.5614 209.306 76.6732 207.745 76.7964C207.745 79.8744 207.745 82.8196 207.745 85.8679C213.006 85.8679 218.082 85.8679 223.253 85.8679C223.253 82.7527 223.253 79.8062 223.253 76.7634C221.559 76.6442 220.065 76.539 218.427 76.4237C218.427 68.2796 218.427 60.4348 218.427 52.0085ZM87.8162 154.367C87.8162 151.005 87.8162 147.643 87.8162 144.239C90.6603 144.239 93.1103 144.239 95.6284 144.239C95.6284 163.22 95.6284 181.969 95.6284 200.867C93.9745 201.017 92.4889 201.151 91.0258 201.284C91.0258 204.476 91.0258 207.413 91.0258 210.383C96.2843 210.383 101.298 210.383 106.496 210.383C106.496 207.314 106.496 204.358 106.496 201.269C104.874 201.132 103.377 201.006 101.893 200.882C101.893 181.841 101.893 163.01 101.893 144.255C104.512 144.255 106.877 144.255 109.592 144.255C109.592 150.353 109.592 156.209 109.592 162.027C111.351 162.027 112.751 162.027 114.177 162.027C114.177 152.762 114.177 143.708 114.177 134.572C103.767 134.572 93.5615 134.572 83.2577 134.572C83.2577 143.825 83.2577 152.888 83.2577 162.051C84.7999 162.051 86.1862 162.051 87.8162 162.051C87.8162 159.563 87.8162 157.255 87.8162 154.367ZM85.446 54.5098C84.6159 51.3746 82.4794 53.5322 80.6441 53.0395C80.6441 61.0028 80.6441 68.6209 80.6441 76.3548C76.3003 76.3548 72.2267 76.3548 68.1785 76.3548C68.1785 57.3301 68.1785 38.5611 68.1785 19.5373C69.3028 19.5373 70.3214 19.7451 71.1894 19.4725C71.9019 19.2488 72.9202 18.4908 72.9645 17.9061C73.1586 15.339 73.0482 12.7488 73.0482 10.1509C67.5757 10.1509 62.5139 10.1509 57.1531 10.1509C57.1531 11.8144 57.1531 13.2487 57.1531 14.6829C57.153 19.2419 57.1533 19.2389 61.5684 19.6904C61.7196 19.7059 61.8519 19.9065 62.0263 20.0477C62.0263 38.7796 62.0263 57.5373 62.0263 76.4655C60.3901 76.5761 58.9009 76.6767 57.3803 76.7795C57.3803 79.9797 57.3803 82.9223 57.3803 85.8023C66.8457 85.8023 76.0821 85.8023 85.4498 85.8023C85.4498 75.4008 85.4498 65.2308 85.446 54.5098ZM181.192 76.6092C180.299 75.9365 178.951 75.4523 178.582 74.5619C174.915 65.7115 171.354 56.8158 167.928 47.8692C167.477 46.6911 167.569 44.9895 168.07 43.8133C170.767 37.4941 173.702 31.2772 176.494 24.9982C177.798 22.067 178.409 18.4779 182.847 19.3647C182.847 16.0612 182.847 13.1057 182.847 10.0767C177.841 10.0767 173.046 10.0767 168.141 10.0767C168.141 13.2624 168.141 16.2883 168.141 19.3495C169.527 19.5111 170.708 19.6489 172.198 19.8227C168.517 28.0904 164.909 36.0015 161.518 44.0045C160.959 45.3237 160.892 47.2139 161.379 48.556C164.483 57.1053 167.809 65.5735 171.049 74.0734C171.334 74.8214 171.525 75.6053 171.784 76.453C170.331 76.5901 169.208 76.696 168.041 76.806C168.041 79.9277 168.041 82.8686 168.041 85.8611C173.232 85.8611 178.216 85.8611 183.493 85.8611C183.493 83.1988 183.602 80.693 183.411 78.2106C183.366 77.6368 182.291 77.1428 181.192 76.6092ZM162.261 86.0341C162.952 85.5051 164.186 85.0253 164.238 84.4388C164.462 81.9627 164.333 79.455 164.333 76.8236C162.729 76.6789 161.422 76.5611 159.976 76.4306C159.976 57.4599 159.976 38.6255 159.976 19.5324C161.197 19.5324 162.279 19.684 163.286 19.4739C163.862 19.3535 164.731 18.6675 164.756 18.1983C164.898 15.5287 164.825 12.8477 164.825 10.1315C159.413 10.1315 154.438 10.1315 149.419 10.1315C149.419 13.3039 149.419 16.2605 149.419 19.337C150.979 19.4873 152.374 19.6215 153.75 19.7541C153.75 38.7818 153.75 57.6048 153.75 76.4697C152.199 76.5817 150.879 76.6771 149.414 76.7829C149.414 79.876 149.414 82.8147 149.414 86.0344C153.627 86.0344 157.669 86.0344 162.261 86.0341ZM93.0057 70.0245C93.0057 72.1259 93.0057 74.2272 93.0057 76.3795C91.4643 76.5594 90.2683 76.6989 89.1124 76.8337C89.1124 79.9953 89.1124 82.9368 89.1124 85.8121C93.8373 85.8121 98.3353 85.8121 102.733 85.8121C102.733 82.6396 102.733 79.6945 102.733 76.7832C101.346 76.641 100.218 76.5254 99.0618 76.4068C99.0618 57.4046 99.0618 38.5803 99.0618 19.7245C100.415 19.5773 101.546 19.4544 102.739 19.3247C102.739 16.1608 102.739 13.1438 102.739 10.1668C98 10.1668 93.5173 10.1668 89.0941 10.1668C89.0941 13.374 89.0941 16.3287 89.0941 19.3592C90.4187 19.4901 91.5487 19.6018 93.0057 19.7457C93.0057 36.3558 93.0057 52.9018 93.0057 70.0245ZM231.023 134.383C229.543 134.271 228.407 134.349 228.47 136.426C228.992 153.549 229.42 170.675 229.972 187.797C229.996 188.535 230.962 189.243 231.488 189.965C231.967 189.2 232.844 188.447 232.867 187.67C233.358 170.738 233.757 153.803 234.159 136.869C234.176 136.126 234.052 135.381 233.984 134.508C233.062 134.461 232.306 134.422 231.023 134.383ZM234.785 208.349C234.785 204.636 234.785 200.923 234.785 197.332C232.238 197.332 230.176 197.332 228.073 197.332C228.073 201.773 228.073 205.974 228.073 210.482C230.026 210.482 231.838 210.581 233.623 210.41C234.053 210.368 234.398 209.431 234.785 208.349Z" fill="#925D5E" style="fill:#925D5E;fill:color(display-p3 0.5725 0.3647 0.3686);fill-opacity:1;"/>
<path d="M177.433 198.496C175.818 191.865 174.237 185.474 172.675 179.079C171.509 174.307 171.52 174.305 166.278 175.044C166.278 183.486 166.278 191.953 166.278 200.594C167.844 200.701 169.291 200.799 170.969 200.913C170.969 203.918 170.969 206.853 170.969 209.988C165.67 209.988 160.405 209.988 155 209.988C155 206.937 155 203.991 155 200.909C156.699 200.812 158.241 200.724 159.971 200.624C159.971 181.677 159.971 162.854 159.971 143.874C158.311 143.776 156.767 143.685 155.035 143.584C155.035 140.506 155.035 137.551 155.035 134.064C162.311 134.505 169.699 133.092 176.934 135.183C180.631 136.252 182.781 139.067 183.877 142.564C186.107 149.678 186.173 156.874 184.192 164.044C183.015 168.307 181.385 170.416 177.474 173.327C179.27 180.492 181.098 187.787 182.929 195.081C183 195.362 183.144 195.63 183.184 195.914C183.64 199.116 184.359 202.026 189 200.616C189 203.921 189 206.868 189 210C186.213 210 183.487 210 180.362 210C179.425 206.345 178.45 202.54 177.433 198.496ZM174.754 144.045C171.952 143.922 169.151 143.799 166.264 143.672C166.264 151.11 166.264 158.037 166.264 165.228C168.357 165.228 170.317 165.373 172.248 165.197C176.11 164.845 178.132 163.356 178.699 159.561C179.207 156.166 179.287 152.586 178.742 149.214C178.452 147.417 176.441 145.886 174.754 144.045Z" fill="#F1FDC5" style="fill:#F1FDC5;fill:color(display-p3 0.9451 0.9922 0.7725);fill-opacity:1;"/>
<path d="M258.463 9.56785C264.236 11.5831 267.41 15.9573 269.745 20.994C274.935 32.1869 275.557 44.0936 274.657 56.1535C274.141 63.0759 272.899 69.9249 269.629 76.104C267.979 79.2212 265.822 82.2637 263.262 84.6558C258.195 89.3909 250.934 88.9832 245.95 84.1575C240.697 79.0706 238.329 72.4918 236.93 65.5534C234.134 51.6875 234.029 37.8314 238.941 24.406C240.436 20.3204 243.01 16.4454 245.812 13.0824C248.923 9.34843 253.372 8.17324 258.463 9.56785ZM244.481 67.8273C245.999 70.2778 247.184 73.0407 249.107 75.1104C252.58 78.8482 257.442 78.7243 260.844 74.937C262.556 73.03 264.096 70.7464 264.997 68.3595C269.769 55.7234 269.884 42.8833 265.586 30.1251C264.595 27.1841 262.761 24.331 260.687 22.003C257.243 18.137 251.993 18.1335 248.769 22.1467C246.528 24.9368 244.599 28.3456 243.691 31.7873C240.559 43.6519 240.586 55.5985 244.481 67.8273Z" fill="#F1FDC5" style="fill:#F1FDC5;fill:color(display-p3 0.9451 0.9922 0.7725);fill-opacity:1;"/>
<path d="M149.578 211C145.656 211 142.016 211 138.244 211C138.244 207.701 138.244 204.713 138.244 201.62C139.813 201.488 141.222 201.37 143.03 201.218C142.071 195.444 141.145 189.865 140.153 183.889C135.825 183.889 131.518 183.862 127.212 183.934C126.803 183.941 126.117 184.522 126.045 184.927C125.091 190.295 124.223 195.679 123.305 201.236C125.057 201.376 126.382 201.481 127.917 201.604C127.917 204.639 127.917 207.623 127.917 210.805C123.005 210.805 118.128 210.805 113 210.805C113 207.868 113 204.89 113 201.845C113.224 201.734 113.495 201.472 113.716 201.51C116.788 202.036 117.715 200.499 118.212 197.58C121.195 180.081 124.381 162.618 127.483 145.14C127.58 144.591 127.495 144.008 127.495 143.312C126.111 143.208 124.793 143.11 123.308 142.998C123.308 140 123.308 137.103 123.308 134C129.91 134 136.401 134 143.056 134C143.056 137.031 143.056 139.926 143.056 142.99C141.563 143.11 140.169 143.222 138.613 143.347C140.85 155.88 143.051 168.229 145.26 180.578C146.262 186.176 147.266 191.775 148.298 197.368C149.005 201.205 149.028 201.201 153 201.685C153 204.648 153 207.639 153 211C151.917 211 150.889 211 149.578 211ZM130.422 174.897C133.073 174.897 135.724 174.897 138.655 174.897C136.856 164.254 135.135 154.072 133.415 143.889C133.266 143.909 133.118 143.93 132.97 143.95C131.226 154.137 129.483 164.323 127.752 174.431C128.133 174.644 128.291 174.796 128.465 174.817C128.94 174.873 129.423 174.874 130.422 174.897Z" fill="#F1FDC5" style="fill:#F1FDC5;fill:color(display-p3 0.9451 0.9922 0.7725);fill-opacity:1;"/>
<path d="M135.028 84.6226C127.923 89.9106 121.049 88.952 115.763 82.0072C111.459 76.3529 109.36 69.77 108.283 62.8858C106.07 48.7282 106.354 34.7174 112.06 21.2928C113.254 18.4844 115.041 15.7624 117.122 13.5244C122.909 7.30065 130.236 7.5622 135.926 13.9122C137.02 15.1338 137.953 16.4997 139.423 18.3963C139.423 15.3813 139.423 12.9672 139.423 10.4191C141.171 10.4191 142.505 10.4191 144.081 10.4191C144.081 18.4378 144.081 26.4496 144.081 34.4565C139.61 35.2533 139.776 35.1833 138.063 31.1428C136.86 28.3061 135.464 25.4259 133.561 23.0348C129.35 17.7459 123.605 18.1133 119.623 23.6136C115.953 28.6832 114.605 34.6159 113.964 40.6107C113.06 49.0719 113.285 57.5675 116.174 65.7141C117.137 68.4312 118.447 71.1418 120.14 73.4632C124.133 78.9386 130.219 79.0996 133.924 73.4325C136.473 69.5338 137.808 64.8348 139.581 60.4516C140.047 59.2995 140.125 57.9914 140.383 56.7431C144.429 58.7847 145.63 61.0351 144.706 65.1418C143.086 72.3395 140.806 79.2337 135.028 84.6226Z" fill="#F1FDC5" style="fill:#F1FDC5;fill:color(display-p3 0.9451 0.9922 0.7725);fill-opacity:1;"/>
<path d="M37.1531 87.8953C31.3718 88.5843 27.5416 85.8014 24.5001 81.6627C19.6194 75.0211 17.5919 67.3007 16.7107 59.306C15.2884 46.4032 15.6652 33.6042 20.9751 21.4657C22.238 18.5788 24.0353 15.7553 26.182 13.4536C31.8827 7.34153 39.1424 7.58829 44.7836 13.7768C45.9437 15.0495 46.9316 16.4779 48.3853 18.3257C48.3853 15.4165 48.3853 13.0564 48.3853 10.4835C50.0847 10.4835 51.4913 10.4835 53.1068 10.4835C53.1068 18.4359 53.1068 26.3737 53.1068 34.3288C49.022 35.5036 48.7936 35.2055 47.1266 31.3313C45.8339 28.3272 44.3289 25.2784 42.2852 22.7594C38.3254 17.8782 32.3363 17.9661 29.0277 23.2907C26.5721 27.2426 24.788 31.8551 23.7895 36.4094C21.5236 46.7452 21.9583 57.1213 25.6923 67.1462C26.5941 69.5674 27.9202 71.9509 29.5362 73.9654C33.406 78.7895 38.7603 78.6819 42.7211 73.925C45.994 69.9941 47.467 65.2638 48.6055 60.4017C48.8912 59.1818 49.1264 57.9502 49.39 56.6995C53.7666 59.1508 54.6362 60.9332 53.6119 65.4829C52.1896 71.8013 50.3979 78.0831 45.6784 82.7571C43.4359 84.9781 40.1933 86.1966 37.1531 87.8953Z" fill="#F1FDC5" style="fill:#F1FDC5;fill:color(display-p3 0.9451 0.9922 0.7725);fill-opacity:1;"/>
<path d="M71.1724 199.577C73.6785 194.764 74.0775 189.81 72.6432 184.938C71.9809 182.688 70.067 180.811 68.6143 178.849C68.1822 178.265 67.4237 177.897 66.7564 177.551C61.2346 174.686 56.276 171.164 54.5282 164.591C52.324 156.301 52.3782 147.95 55.5191 139.937C58.7424 131.714 65.6209 130.728 71.3417 137.372C71.5156 137.574 71.7521 137.719 72.22 138.105C72.3122 137.271 72.4915 136.649 72.4262 136.057C72.202 134.022 73.1878 133.623 74.9269 133.626C76.6521 133.628 77.2149 134.245 77.196 136.018C77.1225 142.911 77.1661 149.806 77.1661 156.81C75.5052 156.81 74.2086 156.81 72.4457 156.81C72.4457 155.628 72.4518 154.508 72.4446 153.388C72.4212 149.745 70.8533 146.774 68.3813 144.388C65.3525 141.465 61.0065 142.542 59.2704 146.462C56.4084 152.924 58.5595 159.963 64.4946 163.551C64.9005 163.797 65.293 164.081 65.725 164.263C74.1512 167.807 78.1007 174.547 78.7532 183.698C79.2703 190.951 79.214 198.136 76.1832 204.894C75.4468 206.536 74.385 208.125 73.1485 209.402C69.8037 212.855 65.2571 212.845 61.7926 209.496C60.5915 208.335 59.5794 206.964 58.1975 205.359C58.1049 207.273 58.0324 208.774 57.9487 210.504C56.455 210.504 55.0195 210.504 53.4118 210.504C53.4118 201.355 53.4118 192.247 53.4118 182.96C54.9285 182.96 56.2887 182.96 58.0569 182.96C58.0569 184.464 58.0674 185.887 58.055 187.31C58.0151 191.896 59.7228 195.891 62.2675 199.456C64.7984 203.001 68.0369 202.997 71.1724 199.577Z" fill="#F1FDC5" style="fill:#F1FDC5;fill:color(display-p3 0.9451 0.9922 0.7725);fill-opacity:1;"/>
<path d="M203.183 160.552C203.183 154.828 203.183 149.396 203.183 143.704C200.598 143.704 198.219 143.704 195.524 143.704C195.524 149.546 195.524 155.429 195.524 161.52C193.873 161.52 192.525 161.52 191 161.52C191 152.405 191 143.31 191 134C200.939 134 210.858 134 221 134C221 143.087 221 152.17 221 161.494C219.614 161.494 218.19 161.494 216.518 161.494C216.518 155.607 216.518 149.797 216.518 143.716C213.918 143.716 211.553 143.716 209.016 143.716C209.016 162.597 209.016 181.423 209.016 200.482C210.476 200.612 211.933 200.742 213.56 200.888C213.56 203.936 213.56 206.899 213.56 210C208.484 210 203.55 210 198.468 210C198.468 206.888 198.468 203.932 198.468 200.874C200.017 200.749 201.397 200.638 203.183 200.495C203.183 187.212 203.183 174.028 203.183 160.552Z" fill="#F1FDC5" style="fill:#F1FDC5;fill:color(display-p3 0.9451 0.9922 0.7725);fill-opacity:1;"/>
<path d="M218.447 51.7501C218.447 59.8084 218.447 67.5787 218.447 75.6455C220.094 75.7597 221.596 75.8639 223.298 75.9819C223.298 78.9959 223.298 81.9144 223.298 85C218.101 85 212.998 85 207.709 85C207.709 81.9807 207.709 79.0635 207.709 76.0146C209.278 75.8926 210.703 75.7818 212.352 75.6536C212.352 56.9186 212.352 38.2753 212.352 19.4676C209.827 19.4676 207.43 19.4676 204.704 19.4676C204.704 25.306 204.704 31.1086 204.704 37.1339C202.993 37.1339 201.599 37.1339 200 37.1339C200 28.1903 200 19.2099 200 10C210.227 10 220.489 10 231 10C231 18.9945 231 28.0355 231 37.2198C229.488 37.2198 228.074 37.2198 226.307 37.2198C226.307 31.2873 226.307 25.4786 226.307 19.4933C223.579 19.4933 221.203 19.4933 218.447 19.4933C218.447 30.2132 218.447 40.8376 218.447 51.7501Z" fill="#F1FDC5" style="fill:#F1FDC5;fill:color(display-p3 0.9451 0.9922 0.7725);fill-opacity:1;"/>
<path d="M87.5704 154.135C87.5705 156.739 87.5705 159.053 87.5705 161.547C85.9362 161.547 84.5462 161.547 83 161.547C83 152.361 83 143.276 83 134C93.3308 134 103.563 134 114 134C114 143.158 114 152.235 114 161.523C112.57 161.523 111.167 161.523 109.403 161.523C109.403 155.691 109.403 149.82 109.403 143.707C106.682 143.707 104.31 143.707 101.684 143.707C101.684 162.509 101.684 181.387 101.684 200.475C103.172 200.6 104.673 200.726 106.299 200.863C106.299 203.96 106.299 206.923 106.299 210C101.088 210 96.0607 210 90.7885 210C90.7885 207.022 90.7885 204.078 90.7885 200.878C92.2554 200.745 93.7449 200.61 95.4031 200.46C95.4031 181.515 95.4031 162.719 95.4031 143.69C92.8784 143.69 90.422 143.69 87.5704 143.69C87.5704 147.103 87.5704 150.474 87.5704 154.135Z" fill="#F1FDC5" style="fill:#F1FDC5;fill:color(display-p3 0.9451 0.9922 0.7725);fill-opacity:1;"/>
<path d="M84.9981 54.25C85 64.6056 85 74.688 85 85C75.7305 85 66.591 85 57.2249 85C57.2249 82.1447 57.2249 79.2275 57.2249 76.0548C58.7294 75.953 60.203 75.8532 61.8221 75.7435C61.8221 56.9784 61.8221 38.3822 61.8221 19.8116C61.6495 19.6716 61.5186 19.4728 61.369 19.4574C57.0002 19.0098 56.9999 19.0127 57 14.4931C57 13.0711 57 11.6492 57 10C62.3046 10 67.3133 10 72.7284 10C72.7284 12.5756 72.8377 15.1435 72.6456 17.6884C72.6018 18.2681 71.5941 19.0196 70.8892 19.2414C70.0302 19.5116 69.0223 19.3056 67.9098 19.3056C67.9098 38.1656 67.9098 56.7729 67.9098 75.6338C71.9155 75.6338 75.9464 75.6338 80.2447 75.6338C80.2447 67.9666 80.2447 60.4141 80.2447 52.5193C82.0607 53.0078 84.1749 50.8687 84.9981 54.25Z" fill="#F1FDC5" style="fill:#F1FDC5;fill:color(display-p3 0.9451 0.9922 0.7725);fill-opacity:1;"/>
<path d="M180.961 75.8453C181.793 76.372 182.846 76.8608 182.889 77.4287C183.077 79.8853 182.969 82.3652 182.969 85C177.803 85 172.924 85 167.842 85C167.842 82.0385 167.842 79.128 167.842 76.0386C168.985 75.9297 170.084 75.8249 171.506 75.6893C171.253 74.8504 171.066 74.0745 170.786 73.3342C167.615 64.9223 164.358 56.5418 161.32 48.081C160.843 46.7528 160.909 44.8821 161.456 43.5766C164.776 35.6564 168.308 27.8272 171.912 19.6451C170.453 19.4731 169.296 19.3367 167.94 19.1768C167.94 16.1472 167.94 13.1527 167.94 10C172.741 10 177.436 10 182.337 10C182.337 12.9976 182.337 15.9225 182.337 19.1918C177.992 18.3142 177.394 21.8662 176.118 24.767C173.384 30.981 170.511 37.1336 167.871 43.3874C167.379 44.5514 167.29 46.2354 167.731 47.4014C171.085 56.2554 174.572 65.059 178.162 73.8177C178.523 74.6989 179.842 75.1781 180.961 75.8453Z" fill="#F1FDC5" style="fill:#F1FDC5;fill:color(display-p3 0.9451 0.9922 0.7725);fill-opacity:1;"/>
<path d="M162.222 86.9999C158.025 87 154.096 87 150 87C150 83.7338 150 80.7526 150 77.6147C151.424 77.5074 152.708 77.4107 154.216 77.2971C154.216 58.1595 154.216 39.0644 154.216 19.7617C152.877 19.6271 151.522 19.491 150.005 19.3385C150.005 16.2175 150.005 13.2182 150.005 10C154.884 10 159.72 10 164.982 10C164.982 12.7554 165.053 15.4751 164.915 18.1833C164.891 18.6593 164.046 19.3553 163.485 19.4774C162.507 19.6905 161.455 19.5367 160.268 19.5367C160.268 38.9058 160.268 58.0125 160.268 77.2574C161.674 77.3897 162.944 77.5093 164.503 77.6561C164.503 80.3255 164.628 82.8695 164.411 85.3813C164.36 85.9763 163.16 86.4631 162.222 86.9999Z" fill="#F1FDC5" style="fill:#F1FDC5;fill:color(display-p3 0.9451 0.9922 0.7725);fill-opacity:1;"/>
<path d="M93.0134 69.0612C93.0134 52.3704 93.0134 35.9656 93.0134 19.4972C91.5185 19.3544 90.3591 19.2437 89 19.114C89 16.1093 89 13.1798 89 10C93.5384 10 98.1378 10 103 10C103 12.9516 103 15.9429 103 19.0797C101.776 19.2084 100.616 19.3302 99.2272 19.4761C99.2272 38.1711 99.2272 56.8348 99.2272 75.6749C100.414 75.7925 101.571 75.9071 102.994 76.0481C102.994 78.9346 102.994 81.8545 102.994 85C98.4819 85 93.8667 85 89.0188 85C89.0188 82.1492 89.0188 79.2328 89.0188 76.0982C90.2047 75.9645 91.4319 75.8262 93.0134 75.6479C93.0134 73.5139 93.0134 71.4305 93.0134 69.0612Z" fill="#F1FDC5" style="fill:#F1FDC5;fill:color(display-p3 0.9451 0.9922 0.7725);fill-opacity:1;"/>
<path d="M231.476 134.032C232.371 134.071 233.035 134.11 233.845 134.158C233.905 135.037 234.014 135.787 233.999 136.535C233.646 153.587 233.295 170.639 232.864 187.689C232.844 188.472 232.074 189.23 231.653 190C231.191 189.273 230.343 188.56 230.322 187.817C229.836 170.576 229.461 153.331 229.002 136.089C228.947 133.997 229.944 133.92 231.476 134.032Z" fill="#F1FDC5" style="fill:#F1FDC5;fill:color(display-p3 0.9451 0.9922 0.7725);fill-opacity:1;"/>
<path d="M234.998 209C234.539 209.854 234.128 210.849 233.616 210.893C231.487 211.075 229.328 210.97 227 210.97C227 206.181 227 201.718 227 197C229.507 197 231.965 197 235 197C235 200.815 235 204.76 234.998 209Z" fill="#F1FDC5" style="fill:#F1FDC5;fill:color(display-p3 0.9451 0.9922 0.7725);fill-opacity:1;"/>
<path d="M174.138 145.455C175.502 147.152 177.38 148.639 177.651 150.385C178.159 153.662 178.084 157.14 177.61 160.439C177.081 164.127 175.193 165.574 171.587 165.916C169.784 166.086 167.954 165.945 166 165.945C166 158.958 166 152.227 166 145C168.695 145.123 171.311 145.243 174.138 145.455Z" fill="#925D5E" style="fill:#925D5E;fill:color(display-p3 0.5725 0.3647 0.3686);fill-opacity:1;"/>
<path d="M244.031 67.7268C240.132 55.6483 240.104 43.6461 243.32 31.7264C244.253 28.2686 246.233 24.844 248.535 22.0409C251.845 18.009 257.237 18.0125 260.773 21.8965C262.903 24.2353 264.786 27.1018 265.804 30.0564C270.219 42.8739 270.1 55.7738 265.2 68.4686C264.274 70.8666 262.693 73.1609 260.934 75.0767C257.442 78.8817 252.448 79.0061 248.882 75.2509C246.907 73.1716 245.69 70.3958 244.031 67.7268Z" fill="#925D5E" style="fill:#925D5E;fill:color(display-p3 0.5725 0.3647 0.3686);fill-opacity:1;"/>
<path d="M129.432 175C128.685 174.978 128.199 174.977 127.719 174.923C127.544 174.903 127.384 174.755 127 174.549C128.746 164.77 130.505 154.914 132.265 145.059C132.414 145.039 132.564 145.02 132.713 145C134.449 154.852 136.185 164.703 138 175C135.044 175 132.369 175 129.432 175Z" fill="#966462" style="fill:#966462;fill:color(display-p3 0.5882 0.3922 0.3843);fill-opacity:1;"/>
</g>
<defs>
<clipPath id="clip0_115_403">
<rect width="421" height="222" rx="20" fill="white" style="fill:white;fill-opacity:1;"/>
</clipPath>
</defs>
</svg>
