<svg width="197" height="103" viewBox="0 0 197 103" fill="none" xmlns="http://www.w3.org/2000/svg">
<path d="M171.319 17.9012C179.683 28.7262 187.892 39.4083 196.18 50.0303C197.462 51.6724 197.172 52.4788 195.79 54.0613C191.045 59.4976 186.609 65.2035 182.133 70.8674C174.078 81.0603 166.092 91.3072 158.028 101.493C157.498 102.162 156.553 102.505 155.801 103C155.412 102.114 154.692 101.23 154.686 100.342C154.628 91.9867 154.692 83.6311 154.72 75.2758C154.724 74.1339 154.72 72.9919 154.72 71.7153C153.887 71.5993 153.244 71.439 152.599 71.4303C137.502 71.2258 122.404 70.979 107.306 70.9036C104.758 70.8909 103.974 70.173 104.001 67.6357C104.12 56.1121 104.117 44.5858 104.003 33.062C103.978 30.5809 104.566 29.7639 107.242 29.8495C122.037 30.3229 136.838 30.5904 151.638 30.9228C152.672 30.9461 153.708 30.9258 155.1 30.9258C155.1 27.4924 155.092 24.3487 155.101 21.205C155.121 14.8661 155.118 8.52681 155.217 2.18911C155.228 1.45483 155.822 0.729492 156.146 0C156.838 0.371046 157.742 0.576103 158.19 1.13876C162.567 6.638 166.868 12.1969 171.319 17.9012Z" fill="#905D5D" style="fill:#905D5D;fill:color(display-p3 0.5647 0.3647 0.3647);fill-opacity:1;"/>
<path d="M67.3188 17.9012C75.6826 28.7262 83.8923 39.4083 92.1803 50.0303C93.4615 51.6724 93.1718 52.4788 91.7905 54.0613C87.0448 59.4976 82.6089 65.2035 78.133 70.8674C70.0777 81.0603 62.0916 91.3072 54.0275 101.493C53.4984 102.162 52.5528 102.505 51.8009 103C51.4122 102.114 50.6923 101.23 50.6861 100.342C50.628 91.9867 50.6923 83.6311 50.72 75.2758C50.7238 74.1339 50.7204 72.9919 50.7204 71.7153C49.887 71.5993 49.244 71.439 48.599 71.4303C33.5016 71.2258 18.4043 70.979 3.30619 70.9036C0.758449 70.8909 -0.0255838 70.173 0.000632194 67.6357C0.119899 56.1121 0.116813 44.5858 0.00254784 33.062C-0.0220361 30.5809 0.566422 29.7639 3.24155 29.8495C18.0366 30.3229 32.8383 30.5904 47.6379 30.9228C48.6722 30.9461 49.7075 30.9258 51.0998 30.9258C51.0998 27.4924 51.0918 24.3487 51.1014 21.205C51.1207 14.8661 51.1183 8.52681 51.2169 2.18911C51.2283 1.45483 51.8219 0.729492 52.1455 0C52.8379 0.371046 53.7421 0.576103 54.19 1.13876C58.567 6.638 62.8679 12.1969 67.3188 17.9012Z" fill="#905D5D" style="fill:#905D5D;fill:color(display-p3 0.5647 0.3647 0.3647);fill-opacity:1;"/>
</svg>
