<svg width="108" height="123" viewBox="0 0 108 123" fill="none" xmlns="http://www.w3.org/2000/svg">
<path d="M58.0464 40.8886C68.1208 47.9851 73.1579 51.5333 74.9203 55.9386C76.4622 59.7928 76.4457 64.0955 74.8744 67.9378C73.0785 72.3295 68.0143 75.8391 57.886 82.8584L40.1821 95.1279C27.1677 104.147 20.6604 108.657 15.2481 108.403C10.5346 108.181 6.15938 105.89 3.29225 102.142C-4.27666e-06 97.8385 -3.93059e-06 89.9213 -3.23844e-06 74.0869L-2.15701e-06 49.3467C-1.45927e-06 33.3841 -1.11039e-06 25.4028 3.31458 21.0907C6.20072 17.336 10.6019 15.0528 15.3336 14.8555C20.7677 14.629 27.2926 19.2253 40.3425 28.4178L58.0464 40.8886Z" fill="white" style="fill:white;fill-opacity:1;"/>
<rect x="88" y="7.48828" width="20" height="106" rx="10" fill="white" style="fill:white;fill-opacity:1;"/>
</svg>
