<svg width="50" height="50" viewBox="0 0 50 50" fill="none" xmlns="http://www.w3.org/2000/svg">
<path d="M40.6037 49.6641C43.1441 49.6641 45.1154 47.8293 45.1154 45.2525C45.0715 42.6752 43.1002 40.9281 40.6037 40.9281H32.8944L13.4908 41.9327L30.3979 25.7712L48.4439 7.73132C49.3203 6.90144 49.802 5.72209 49.802 4.49904C49.802 1.79088 47.7873 0 45.0715 0C43.9326 0 42.8373 0.436798 42.0493 1.26672L24.0908 19.3502L7.75276 36.167L8.76015 16.9041V9.21644C8.76015 6.68303 6.96426 4.7611 4.42381 4.7611C1.8394 4.7611 0 6.72668 0 9.21644V41.9327C0 46.7813 2.89074 49.6641 7.75276 49.6641H40.6037Z" fill="white" style="fill:white;fill-opacity:1;"/>
</svg>
